{
.appVersion = "85";
DisplayStrings = (
"Haha, ",
"/ellipsis",
"/dieresiscomb",
"/pixel",
f,
M,
a,
"aä",
uo,
"/quoteright"
);
copyright = "Copyright Andrew Tyler 2012\012font@andrewtyler.net";
customParameters = (
{
name = vendorID;
value = FSTR;
},
{
name = panose;
value = (
0,
0,
4,
0,
0,
0,
0,
0,
0,
0
);
},
{
name = unicodeRanges;
value = (
0,
1,
2,
3,
31,
33,
35,
62
);
}
);
date = "2012-02-01 16:58:05 +0000";
designer = "Andrew Tyler";
designerURL = "http://www.andrewtyler.net";
familyName = pixelmix;
featurePrefixes = (
{
automatic = 1;
code = "languagesystem DFLT dflt;\012";
name = Languagesystems;
}
);
fontMaster = (
{
ascender = 1024;
capHeight = 896;
customParameters = (
{
name = typoAscender;
value = 1024;
},
{
name = typoDescender;
value = 0;
},
{
name = typoLineGap;
value = 0;
},
{
name = winAscent;
value = 1024;
},
{
name = winDescent;
value = 0;
},
{
name = hheaAscender;
value = 1024;
},
{
name = hheaDescender;
value = 0;
}
);
descender = -256;
id = "C5C5FFEE-5FA5-41C1-9397-B55000630C69";
weightValue = 400;
widthValue = 5;
xHeight = 640;
}
);
glyphs = (
{
glyphname = A;
lastChange = "2019-06-23 08:42:31 +0000";
layers = (
{
layerId = "C5C5FFEE-5FA5-41C1-9397-B55000630C69";
paths = (
{
closed = 1;
nodes = (
"128 384 LINE",
"512 384 LINE",
"512 0 LINE",
"640 0 LINE",
"640 768 LINE",
"512 768 LINE",
"512 512 LINE",
"128 512 LINE",
"128 768 LINE",
"0 768 LINE",
"0 0 LINE",
"128 0 LINE"
);
},
{
closed = 1;
nodes = (
"512 896 LINE",
"128 896 LINE",
"128 768 LINE",
"512 768 LINE"
);
}
);
width = 768;
}
);
unicode = 0041;
},
{
glyphname = B;
lastChange = "2019-06-23 08:42:31 +0000";
layers = (
{
layerId = "C5C5FFEE-5FA5-41C1-9397-B55000630C69";
paths = (
{
closed = 1;
nodes = (
"640 384 LINE",
"512 384 LINE",
"512 128 LINE",
"640 128 LINE"
);
},
{
closed = 1;
nodes = (
"640 768 LINE",
"512 768 LINE",
"512 512 LINE",
"640 512 LINE"
);
},
{
closed = 1;
nodes = (
"512 128 LINE",
"128 128 LINE",
"128 384 LINE",
"512 384 LINE",
"512 512 LINE",
"128 512 LINE",
"128 768 LINE",
"512 768 LINE",
"512 896 LINE",
"0 896 LINE",
"0 0 LINE",
"512 0 LINE"
);
}
);
width = 768;
}
);
unicode = 0042;
},
{
glyphname = C;
lastChange = "2019-06-23 08:42:31 +0000";
layers = (
{
layerId = "C5C5FFEE-5FA5-41C1-9397-B55000630C69";
paths = (
{
closed = 1;
nodes = (
"512 128 LINE",
"128 128 LINE",
"128 0 LINE",
"512 0 LINE"
);
},
{
closed = 1;
nodes = (
"640 256 LINE",
"512 256 LINE",
"512 128 LINE",
"640 128 LINE"
);
},
{
closed = 1;
nodes = (
"128 768 LINE",
"0 768 LINE",
"0 128 LINE",
"128 128 LINE"
);
},
{
closed = 1;
nodes = (
"640 768 LINE",
"512 768 LINE",
"512 640 LINE",
"640 640 LINE"
);
},
{
closed = 1;
nodes = (
"512 896 LINE",
"128 896 LINE",
"128 768 LINE",
"512 768 LINE"
);
}
);
width = 768;
}
);
unicode = 0043;
},
{
glyphname = D;
lastChange = "2019-06-23 08:42:31 +0000";
layers = (
{
layerId = "C5C5FFEE-5FA5-41C1-9397-B55000630C69";
paths = (
{
closed = 1;
nodes = (
"640 768 LINE",
"512 768 LINE",
"512 128 LINE",
"640 128 LINE"
);
},
{
closed = 1;
nodes = (
"512 128 LINE",
"128 128 LINE",
"128 768 LINE",
"512 768 LINE",
"512 896 LINE",
"0 896 LINE",
"0 0 LINE",
"512 0 LINE"
);
}
);
width = 768;
}
);
unicode = 0044;
},
{
glyphname = E;
lastChange = "2019-06-23 08:42:31 +0000";
layers = (
{
layerId = "C5C5FFEE-5FA5-41C1-9397-B55000630C69";
paths = (
{
closed = 1;
nodes = (
"640 128 LINE",
"128 128 LINE",
"128 384 LINE",
"512 384 LINE",
"512 512 LINE",
"128 512 LINE",
"128 768 LINE",
"640 768 LINE",
"640 896 LINE",
"0 896 LINE",
"0 0 LINE",
"640 0 LINE"
);
}
);
width = 768;
}
);
unicode = 0045;
},
{
glyphname = F;
lastChange = "2019-06-23 08:42:31 +0000";
layers = (
{
layerId = "C5C5FFEE-5FA5-41C1-9397-B55000630C69";
paths = (
{
closed = 1;
nodes = (
"128 384 LINE",
"512 384 LINE",
"512 512 LINE",
"128 512 LINE",
"128 768 LINE",
"640 768 LINE",
"640 896 LINE",
"0 896 LINE",
"0 0 LINE",
"128 0 LINE"
);
}
);
width = 768;
}
);
unicode = 0046;
},
{
glyphname = G;
lastChange = "2019-06-23 08:42:31 +0000";
layers = (
{
layerId = "C5C5FFEE-5FA5-41C1-9397-B55000630C69";
paths = (
{
closed = 1;
nodes = (
"640 512 LINE",
"256 512 LINE",
"256 384 LINE",
"512 384 LINE",
"512 128 LINE",
"128 128 LINE",
"128 0 LINE",
"640 0 LINE"
);
},
{
closed = 1;
nodes = (
"128 768 LINE",
"0 768 LINE",
"0 128 LINE",
"128 128 LINE"
);
},
{
closed = 1;
nodes = (
"640 768 LINE",
"512 768 LINE",
"512 640 LINE",
"640 640 LINE"
);
},
{
closed = 1;
nodes = (
"512 896 LINE",
"128 896 LINE",
"128 768 LINE",
"512 768 LINE"
);
}
);
width = 768;
}
);
unicode = 0047;
},
{
glyphname = H;
lastChange = "2019-06-23 08:42:31 +0000";
layers = (
{
layerId = "C5C5FFEE-5FA5-41C1-9397-B55000630C69";
paths = (
{
closed = 1;
nodes = (
"128 384 LINE",
"512 384 LINE",
"512 0 LINE",
"640 0 LINE",
"640 896 LINE",
"512 896 LINE",
"512 512 LINE",
"128 512 LINE",
"128 896 LINE",
"0 896 LINE",
"0 0 LINE",
"128 0 LINE"
);
}
);
width = 768;
}
);
unicode = 0048;
},
{
glyphname = I;
lastChange = "2019-06-23 08:42:31 +0000";
layers = (
{
layerId = "C5C5FFEE-5FA5-41C1-9397-B55000630C69";
paths = (
{
closed = 1;
nodes = (
"384 128 LINE",
"256 128 LINE",
"256 768 LINE",
"384 768 LINE",
"384 896 LINE",
"0 896 LINE",
"0 768 LINE",
"128 768 LINE",
"128 128 LINE",
"0 128 LINE",
"0 0 LINE",
"384 0 LINE"
);
}
);
width = 512;
}
);
unicode = 0049;
},
{
glyphname = J;
lastChange = "2019-06-23 08:42:31 +0000";
layers = (
{
layerId = "C5C5FFEE-5FA5-41C1-9397-B55000630C69";
paths = (
{
closed = 1;
nodes = (
"384 128 LINE",
"128 128 LINE",
"128 0 LINE",
"384 0 LINE"
);
},
{
closed = 1;
nodes = (
"128 256 LINE",
"0 256 LINE",
"0 128 LINE",
"128 128 LINE"
);
},
{
closed = 1;
nodes = (
"512 768 LINE",
"640 768 LINE",
"640 896 LINE",
"256 896 LINE",
"256 768 LINE",
"384 768 LINE",
"384 128 LINE",
"512 128 LINE"
);
}
);
width = 768;
}
);
unicode = 004A;
},
{
glyphname = K;
lastChange = "2019-06-23 08:42:31 +0000";
layers = (
{
layerId = "C5C5FFEE-5FA5-41C1-9397-B55000630C69";
paths = (
{
closed = 1;
nodes = (
"640 128 LINE",
"512 128 LINE",
"512 0 LINE",
"640 0 LINE"
);
},
{
closed = 1;
nodes = (
"512 256 LINE",
"384 256 LINE",
"384 128 LINE",
"512 128 LINE"
);
},
{
closed = 1;
nodes = (
"384 384 LINE",
"256 384 LINE",
"256 256 LINE",
"384 256 LINE"
);
},
{
closed = 1;
nodes = (
"384 640 LINE",
"256 640 LINE",
"256 512 LINE",
"384 512 LINE"
);
},
{
closed = 1;
nodes = (
"512 768 LINE",
"384 768 LINE",
"384 640 LINE",
"512 640 LINE"
);
},
{
closed = 1;
nodes = (
"128 384 LINE",
"256 384 LINE",
"256 512 LINE",
"128 512 LINE",
"128 896 LINE",
"0 896 LINE",
"0 0 LINE",
"128 0 LINE"
);
},
{
closed = 1;
nodes = (
"640 896 LINE",
"512 896 LINE",
"512 768 LINE",
"640 768 LINE"
);
}
);
width = 768;
}
);
unicode = 004B;
},
{
glyphname = L;
lastChange = "2019-06-23 08:42:31 +0000";
layers = (
{
layerId = "C5C5FFEE-5FA5-41C1-9397-B55000630C69";
paths = (
{
closed = 1;
nodes = (
"640 128 LINE",
"128 128 LINE",
"128 896 LINE",
"0 896 LINE",
"0 0 LINE",
"640 0 LINE"
);
}
);
width = 768;
}
);
unicode = 004C;
},
{
glyphname = M;
lastChange = "2019-06-23 08:42:31 +0000";
layers = (
{
layerId = "C5C5FFEE-5FA5-41C1-9397-B55000630C69";
paths = (
{
closed = 1;
nodes = (
"384 640 LINE",
"256 640 LINE",
"256 384 LINE",
"384 384 LINE"
);
},
{
closed = 1;
nodes = (
"128 640 LINE",
"256 640 LINE",
"256 768 LINE",
"128 768 LINE",
"128 896 LINE",
"0 896 LINE",
"0 0 LINE",
"128 0 LINE"
);
},
{
closed = 1;
nodes = (
"640 896 LINE",
"512 896 LINE",
"512 768 LINE",
"384 768 LINE",
"384 640 LINE",
"512 640 LINE",
"512 0 LINE",
"640 0 LINE"
);
}
);
width = 768;
}
);
unicode = 004D;
},
{
glyphname = N;
lastChange = "2019-06-23 08:42:31 +0000";
layers = (
{
layerId = "C5C5FFEE-5FA5-41C1-9397-B55000630C69";
paths = (
{
closed = 1;
nodes = (
"384 512 LINE",
"256 512 LINE",
"256 384 LINE",
"384 384 LINE"
);
},
{
closed = 1;
nodes = (
"128 512 LINE",
"256 512 LINE",
"256 640 LINE",
"128 640 LINE",
"128 896 LINE",
"0 896 LINE",
"0 0 LINE",
"128 0 LINE"
);
},
{
closed = 1;
nodes = (
"640 896 LINE",
"512 896 LINE",
"512 384 LINE",
"384 384 LINE",
"384 256 LINE",
"512 256 LINE",
"512 0 LINE",
"640 0 LINE"
);
}
);
width = 768;
}
);
unicode = 004E;
},
{
glyphname = O;
lastChange = "2019-06-23 09:00:28 +0000";
layers = (
{
layerId = "C5C5FFEE-5FA5-41C1-9397-B55000630C69";
paths = (
{
closed = 1;
nodes = (
"512 128 LINE",
"128 128 LINE",
"128 0 LINE",
"512 0 LINE"
);
},
{
closed = 1;
nodes = (
"128 768 LINE",
"0 768 LINE",
"0 128 LINE",
"128 128 LINE"
);
},
{
closed = 1;
nodes = (
"640 768 LINE",
"512 768 LINE",
"512 128 LINE",
"640 128 LINE"
);
},
{
closed = 1;
nodes = (
"512 896 LINE",
"128 896 LINE",
"128 768 LINE",
"512 768 LINE"
);
}
);
width = 768;
},
{
layerId = "C5C5FFEE-5FA5-41C1-9397-B55000630C69";
paths = (
{
closed = 1;
nodes = (
"512 128 LINE",
"128 128 LINE",
"128 0 LINE",
"512 0 LINE"
);
},
{
closed = 1;
nodes = (
"128 768 LINE",
"0 768 LINE",
"0 128 LINE",
"128 128 LINE"
);
},
{
closed = 1;
nodes = (
"640 768 LINE",
"512 768 LINE",
"512 128 LINE",
"640 128 LINE"
);
},
{
closed = 1;
nodes = (
"512 896 LINE",
"128 896 LINE",
"128 768 LINE",
"512 768 LINE"
);
}
);
width = 768;
}
);
unicode = 004F;
},
{
glyphname = P;
lastChange = "2019-06-23 08:42:31 +0000";
layers = (
{
layerId = "C5C5FFEE-5FA5-41C1-9397-B55000630C69";
paths = (
{
closed = 1;
nodes = (
"640 768 LINE",
"512 768 LINE",
"512 512 LINE",
"640 512 LINE"
);
},
{
closed = 1;
nodes = (
"128 384 LINE",
"512 384 LINE",
"512 512 LINE",
"128 512 LINE",
"128 768 LINE",
"512 768 LINE",
"512 896 LINE",
"0 896 LINE",
"0 0 LINE",
"128 0 LINE"
);
}
);
width = 768;
}
);
unicode = 0050;
},
{
glyphname = Q;
lastChange = "2019-06-23 08:42:31 +0000";
layers = (
{
layerId = "C5C5FFEE-5FA5-41C1-9397-B55000630C69";
paths = (
{
closed = 1;
nodes = (
"384 128 LINE",
"128 128 LINE",
"128 0 LINE",
"384 0 LINE"
);
},
{
closed = 1;
nodes = (
"640 128 LINE",
"512 128 LINE",
"512 0 LINE",
"640 0 LINE"
);
},
{
closed = 1;
nodes = (
"512 256 LINE",
"384 256 LINE",
"384 128 LINE",
"512 128 LINE"
);
},
{
closed = 1;
nodes = (
"384 384 LINE",
"256 384 LINE",
"256 256 LINE",
"384 256 LINE"
);
},
{
closed = 1;
nodes = (
"128 768 LINE",
"0 768 LINE",
"0 128 LINE",
"128 128 LINE"
);
},
{
closed = 1;
nodes = (
"640 768 LINE",
"512 768 LINE",
"512 256 LINE",
"640 256 LINE"
);
},
{
closed = 1;
nodes = (
"512 896 LINE",
"128 896 LINE",
"128 768 LINE",
"512 768 LINE"
);
}
);
width = 768;
}
);
unicode = 0051;
},
{
glyphname = R;
lastChange = "2019-06-23 08:42:31 +0000";
layers = (
{
layerId = "C5C5FFEE-5FA5-41C1-9397-B55000630C69";
paths = (
{
closed = 1;
nodes = (
"640 128 LINE",
"512 128 LINE",
"512 0 LINE",
"640 0 LINE"
);
},
{
closed = 1;
nodes = (
"512 256 LINE",
"384 256 LINE",
"384 128 LINE",
"512 128 LINE"
);
},
{
closed = 1;
nodes = (
"640 768 LINE",
"512 768 LINE",
"512 512 LINE",
"640 512 LINE"
);
},
{
closed = 1;
nodes = (
"128 384 LINE",
"256 384 LINE",
"256 256 LINE",
"384 256 LINE",
"384 384 LINE",
"512 384 LINE",
"512 512 LINE",
"128 512 LINE",
"128 768 LINE",
"512 768 LINE",
"512 896 LINE",
"0 896 LINE",
"0 0 LINE",
"128 0 LINE"
);
}
);
width = 768;
}
);
unicode = 0052;
},
{
glyphname = S;
lastChange = "2019-06-23 08:42:31 +0000";
layers = (
{
layerId = "C5C5FFEE-5FA5-41C1-9397-B55000630C69";
paths = (
{
closed = 1;
nodes = (
"512 128 LINE",
"0 128 LINE",
"0 0 LINE",
"512 0 LINE"
);
},
{
closed = 1;
nodes = (
"640 384 LINE",
"512 384 LINE",
"512 128 LINE",
"640 128 LINE"
);
},
{
closed = 1;
nodes = (
"512 512 LINE",
"128 512 LINE",
"128 384 LINE",
"512 384 LINE"
);
},
{
closed = 1;
nodes = (
"128 768 LINE",
"0 768 LINE",
"0 512 LINE",
"128 512 LINE"
);
},
{
closed = 1;
nodes = (
"640 896 LINE",
"128 896 LINE",
"128 768 LINE",
"640 768 LINE"
);
}
);
width = 768;
}
);
unicode = 0053;
},
{
glyphname = T;
lastChange = "2019-06-23 08:42:31 +0000";
layers = (
{
layerId = "C5C5FFEE-5FA5-41C1-9397-B55000630C69";
paths = (
{
closed = 1;
nodes = (
"384 768 LINE",
"640 768 LINE",
"640 896 LINE",
"0 896 LINE",
"0 768 LINE",
"256 768 LINE",
"256 0 LINE",
"384 0 LINE"
);
}
);
width = 768;
}
);
unicode = 0054;
},
{
glyphname = U;
lastChange = "2019-06-23 08:42:31 +0000";
layers = (
{
layerId = "C5C5FFEE-5FA5-41C1-9397-B55000630C69";
paths = (
{
closed = 1;
nodes = (
"512 128 LINE",
"128 128 LINE",
"128 0 LINE",
"512 0 LINE"
);
},
{
closed = 1;
nodes = (
"128 896 LINE",
"0 896 LINE",
"0 128 LINE",
"128 128 LINE"
);
},
{
closed = 1;
nodes = (
"640 896 LINE",
"512 896 LINE",
"512 128 LINE",
"640 128 LINE"
);
}
);
width = 768;
}
);
unicode = 0055;
},
{
glyphname = V;
lastChange = "2019-06-23 08:42:31 +0000";
layers = (
{
layerId = "C5C5FFEE-5FA5-41C1-9397-B55000630C69";
paths = (
{
closed = 1;
nodes = (
"384 128 LINE",
"256 128 LINE",
"256 0 LINE",
"384 0 LINE"
);
},
{
closed = 1;
nodes = (
"256 384 LINE",
"128 384 LINE",
"128 128 LINE",
"256 128 LINE"
);
},
{
closed = 1;
nodes = (
"512 384 LINE",
"384 384 LINE",
"384 128 LINE",
"512 128 LINE"
);
},
{
closed = 1;
nodes = (
"128 896 LINE",
"0 896 LINE",
"0 384 LINE",
"128 384 LINE"
);
},
{
closed = 1;
nodes = (
"640 896 LINE",
"512 896 LINE",
"512 384 LINE",
"640 384 LINE"
);
}
);
width = 768;
}
);
unicode = 0056;
},
{
glyphname = W;
lastChange = "2019-06-23 08:42:31 +0000";
layers = (
{
layerId = "C5C5FFEE-5FA5-41C1-9397-B55000630C69";
paths = (
{
closed = 1;
nodes = (
"256 128 LINE",
"128 128 LINE",
"128 0 LINE",
"256 0 LINE"
);
},
{
closed = 1;
nodes = (
"512 128 LINE",
"384 128 LINE",
"384 0 LINE",
"512 0 LINE"
);
},
{
closed = 1;
nodes = (
"384 512 LINE",
"256 512 LINE",
"256 128 LINE",
"384 128 LINE"
);
},
{
closed = 1;
nodes = (
"128 896 LINE",
"0 896 LINE",
"0 128 LINE",
"128 128 LINE"
);
},
{
closed = 1;
nodes = (
"640 896 LINE",
"512 896 LINE",
"512 128 LINE",
"640 128 LINE"
);
}
);
width = 768;
}
);
unicode = 0057;
},
{
glyphname = X;
lastChange = "2019-06-23 08:42:31 +0000";
layers = (
{
layerId = "C5C5FFEE-5FA5-41C1-9397-B55000630C69";
paths = (
{
closed = 1;
nodes = (
"128 256 LINE",
"0 256 LINE",
"0 0 LINE",
"128 0 LINE"
);
},
{
closed = 1;
nodes = (
"640 256 LINE",
"512 256 LINE",
"512 0 LINE",
"640 0 LINE"
);
},
{
closed = 1;
nodes = (
"256 384 LINE",
"128 384 LINE",
"128 256 LINE",
"256 256 LINE"
);
},
{
closed = 1;
nodes = (
"512 384 LINE",
"384 384 LINE",
"384 256 LINE",
"512 256 LINE"
);
},
{
closed = 1;
nodes = (
"384 512 LINE",
"256 512 LINE",
"256 384 LINE",
"384 384 LINE"
);
},
{
closed = 1;
nodes = (
"256 640 LINE",
"128 640 LINE",
"128 512 LINE",
"256 512 LINE"
);
},
{
closed = 1;
nodes = (
"512 640 LINE",
"384 640 LINE",
"384 512 LINE",
"512 512 LINE"
);
},
{
closed = 1;
nodes = (
"128 896 LINE",
"0 896 LINE",
"0 640 LINE",
"128 640 LINE"
);
},
{
closed = 1;
nodes = (
"640 896 LINE",
"512 896 LINE",
"512 640 LINE",
"640 640 LINE"
);
}
);
width = 768;
}
);
unicode = 0058;
},
{
glyphname = Y;
lastChange = "2019-06-23 08:42:31 +0000";
layers = (
{
layerId = "C5C5FFEE-5FA5-41C1-9397-B55000630C69";
paths = (
{
closed = 1;
nodes = (
"384 384 LINE",
"256 384 LINE",
"256 0 LINE",
"384 0 LINE"
);
},
{
closed = 1;
nodes = (
"256 512 LINE",
"128 512 LINE",
"128 384 LINE",
"256 384 LINE"
);
},
{
closed = 1;
nodes = (
"512 512 LINE",
"384 512 LINE",
"384 384 LINE",
"512 384 LINE"
);
},
{
closed = 1;
nodes = (
"128 896 LINE",
"0 896 LINE",
"0 512 LINE",
"128 512 LINE"
);
},
{
closed = 1;
nodes = (
"640 896 LINE",
"512 896 LINE",
"512 512 LINE",
"640 512 LINE"
);
}
);
width = 768;
}
);
unicode = 0059;
},
{
glyphname = Z;
lastChange = "2019-06-23 08:42:31 +0000";
layers = (
{
layerId = "C5C5FFEE-5FA5-41C1-9397-B55000630C69";
paths = (
{
closed = 1;
nodes = (
"640 128 LINE",
"128 128 LINE",
"128 256 LINE",
"0 256 LINE",
"0 0 LINE",
"640 0 LINE"
);
},
{
closed = 1;
nodes = (
"256 384 LINE",
"128 384 LINE",
"128 256 LINE",
"256 256 LINE"
);
},
{
closed = 1;
nodes = (
"384 512 LINE",
"256 512 LINE",
"256 384 LINE",
"384 384 LINE"
);
},
{
closed = 1;
nodes = (
"512 640 LINE",
"384 640 LINE",
"384 512 LINE",
"512 512 LINE"
);
},
{
closed = 1;
nodes = (
"640 896 LINE",
"0 896 LINE",
"0 768 LINE",
"512 768 LINE",
"512 640 LINE",
"640 640 LINE"
);
}
);
width = 768;
}
);
unicode = 005A;
},
{
glyphname = a;
lastChange = "2019-06-23 08:58:24 +0000";
layers = (
{
anchors = (
{
name = bottom;
position = "{384, 0}";
},
{
name = ogonek;
position = "{691, 10}";
},
{
name = top;
position = "{128, 640}";
}
);
layerId = "C5C5FFEE-5FA5-41C1-9397-B55000630C69";
paths = (
{
closed = 1;
nodes = (
"128 256 LINE",
"0 256 LINE",
"0 128 LINE",
"128 128 LINE"
);
},
{
closed = 1;
nodes = (
"640 512 LINE",
"512 512 LINE",
"512 384 LINE",
"128 384 LINE",
"128 256 LINE",
"512 256 LINE",
"512 128 LINE",
"128 128 LINE",
"128 0 LINE",
"640 0 LINE"
);
},
{
closed = 1;
nodes = (
"512 640 LINE",
"128 640 LINE",
"128 512 LINE",
"512 512 LINE"
);
}
);
width = 768;
}
);
unicode = 0061;
},
{
glyphname = b;
lastChange = "2019-06-23 08:42:31 +0000";
layers = (
{
layerId = "C5C5FFEE-5FA5-41C1-9397-B55000630C69";
paths = (
{
closed = 1;
nodes = (
"640 512 LINE",
"512 512 LINE",
"512 128 LINE",
"640 128 LINE"
);
},
{
closed = 1;
nodes = (
"512 640 LINE",
"256 640 LINE",
"256 512 LINE",
"512 512 LINE"
);
},
{
closed = 1;
nodes = (
"512 128 LINE",
"128 128 LINE",
"128 384 LINE",
"256 384 LINE",
"256 512 LINE",
"128 512 LINE",
"128 896 LINE",
"0 896 LINE",
"0 0 LINE",
"512 0 LINE"
);
}
);
width = 768;
}
);
unicode = 0062;
},
{
glyphname = c;
lastChange = "2019-06-23 08:42:31 +0000";
layers = (
{
layerId = "C5C5FFEE-5FA5-41C1-9397-B55000630C69";
paths = (
{
closed = 1;
nodes = (
"512 128 LINE",
"128 128 LINE",
"128 0 LINE",
"512 0 LINE"
);
},
{
closed = 1;
nodes = (
"640 256 LINE",
"512 256 LINE",
"512 128 LINE",
"640 128 LINE"
);
},
{
closed = 1;
nodes = (
"128 512 LINE",
"0 512 LINE",
"0 128 LINE",
"128 128 LINE"
);
},
{
closed = 1;
nodes = (
"512 640 LINE",
"128 640 LINE",
"128 512 LINE",
"512 512 LINE"
);
}
);
width = 768;
}
);
unicode = 0063;
},
{
glyphname = d;
lastChange = "2019-06-23 08:42:31 +0000";
layers = (
{
layerId = "C5C5FFEE-5FA5-41C1-9397-B55000630C69";
paths = (
{
closed = 1;
nodes = (
"128 512 LINE",
"0 512 LINE",
"0 128 LINE",
"128 128 LINE"
);
},
{
closed = 1;
nodes = (
"384 640 LINE",
"128 640 LINE",
"128 512 LINE",
"384 512 LINE"
);
},
{
closed = 1;
nodes = (
"640 896 LINE",
"512 896 LINE",
"512 512 LINE",
"384 512 LINE",
"384 384 LINE",
"512 384 LINE",
"512 128 LINE",
"128 128 LINE",
"128 0 LINE",
"640 0 LINE"
);
}
);
width = 768;
}
);
unicode = 0064;
},
{
glyphname = e;
lastChange = "2019-06-23 08:42:31 +0000";
layers = (
{
layerId = "C5C5FFEE-5FA5-41C1-9397-B55000630C69";
paths = (
{
closed = 1;
nodes = (
"512 128 LINE",
"128 128 LINE",
"128 0 LINE",
"512 0 LINE"
);
},
{
closed = 1;
nodes = (
"128 256 LINE",
"640 256 LINE",
"640 512 LINE",
"512 512 LINE",
"512 384 LINE",
"128 384 LINE",
"128 512 LINE",
"0 512 LINE",
"0 128 LINE",
"128 128 LINE"
);
},
{
closed = 1;
nodes = (
"512 640 LINE",
"128 640 LINE",
"128 512 LINE",
"512 512 LINE"
);
}
);
width = 768;
}
);
unicode = 0065;
},
{
glyphname = f;
lastChange = "2019-06-23 17:33:59 +0000";
layers = (
{
layerId = "C5C5FFEE-5FA5-41C1-9397-B55000630C69";
paths = (
{
closed = 1;
nodes = (
"256 384 LINE",
"384 384 LINE",
"384 512 LINE",
"256 512 LINE",
"256 768 LINE",
"128 768 LINE",
"128 512 LINE",
"0 512 LINE",
"0 384 LINE",
"128 384 LINE",
"128 0 LINE",
"256 0 LINE"
);
},
{
closed = 1;
nodes = (
"640 768 LINE",
"512 768 LINE",
"512 640 LINE",
"640 640 LINE"
);
},
{
closed = 1;
nodes = (
"512 896 LINE",
"256 896 LINE",
"256 768 LINE",
"512 768 LINE"
);
}
);
width = 768;
}
);
unicode = 0066;
},
{
glyphname = g;
lastChange = "2019-06-23 08:42:31 +0000";
layers = (
{
layerId = "C5C5FFEE-5FA5-41C1-9397-B55000630C69";
paths = (
{
closed = 1;
nodes = (
"512 128 LINE",
"128 128 LINE",
"128 0 LINE",
"512 0 LINE"
);
},
{
closed = 1;
nodes = (
"128 640 LINE",
"0 640 LINE",
"0 384 LINE",
"128 384 LINE"
);
},
{
closed = 1;
nodes = (
"640 768 LINE",
"128 768 LINE",
"128 640 LINE",
"512 640 LINE",
"512 384 LINE",
"128 384 LINE",
"128 256 LINE",
"512 256 LINE",
"512 128 LINE",
"640 128 LINE"
);
}
);
width = 768;
}
);
unicode = 0067;
},
{
glyphname = h;
lastChange = "2019-06-23 08:42:31 +0000";
layers = (
{
layerId = "C5C5FFEE-5FA5-41C1-9397-B55000630C69";
paths = (
{
closed = 1;
nodes = (
"640 512 LINE",
"512 512 LINE",
"512 0 LINE",
"640 0 LINE"
);
},
{
closed = 1;
nodes = (
"512 640 LINE",
"256 640 LINE",
"256 512 LINE",
"512 512 LINE"
);
},
{
closed = 1;
nodes = (
"128 384 LINE",
"256 384 LINE",
"256 512 LINE",
"128 512 LINE",
"128 896 LINE",
"0 896 LINE",
"0 0 LINE",
"128 0 LINE"
);
}
);
width = 768;
}
);
unicode = 0068;
},
{
glyphname = i;
lastChange = "2019-06-23 08:42:31 +0000";
layers = (
{
layerId = "C5C5FFEE-5FA5-41C1-9397-B55000630C69";
paths = (
{
closed = 1;
nodes = (
"384 128 LINE",
"256 128 LINE",
"256 640 LINE",
"0 640 LINE",
"0 512 LINE",
"128 512 LINE",
"128 128 LINE",
"0 128 LINE",
"0 0 LINE",
"384 0 LINE"
);
},
{
closed = 1;
nodes = (
"256 896 LINE",
"128 896 LINE",
"128 768 LINE",
"256 768 LINE"
);
}
);
width = 512;
}
);
unicode = 0069;
},
{
glyphname = j;
lastChange = "2019-06-23 08:42:31 +0000";
layers = (
{
layerId = "C5C5FFEE-5FA5-41C1-9397-B55000630C69";
paths = (
{
closed = 1;
nodes = (
"384 128 LINE",
"128 128 LINE",
"128 0 LINE",
"384 0 LINE"
);
},
{
closed = 1;
nodes = (
"128 256 LINE",
"0 256 LINE",
"0 128 LINE",
"128 128 LINE"
);
},
{
closed = 1;
nodes = (
"512 640 LINE",
"384 640 LINE",
"384 128 LINE",
"512 128 LINE"
);
},
{
closed = 1;
nodes = (
"512 896 LINE",
"384 896 LINE",
"384 768 LINE",
"512 768 LINE"
);
}
);
width = 640;
}
);
unicode = 006A;
},
{
glyphname = k;
lastChange = "2019-06-23 08:42:31 +0000";
layers = (
{
layerId = "C5C5FFEE-5FA5-41C1-9397-B55000630C69";
paths = (
{
closed = 1;
nodes = (
"512 128 LINE",
"384 128 LINE",
"384 0 LINE",
"512 0 LINE"
);
},
{
closed = 1;
nodes = (
"384 256 LINE",
"256 256 LINE",
"256 128 LINE",
"384 128 LINE"
);
},
{
closed = 1;
nodes = (
"384 512 LINE",
"256 512 LINE",
"256 384 LINE",
"384 384 LINE"
);
},
{
closed = 1;
nodes = (
"512 640 LINE",
"384 640 LINE",
"384 512 LINE",
"512 512 LINE"
);
},
{
closed = 1;
nodes = (
"128 256 LINE",
"256 256 LINE",
"256 384 LINE",
"128 384 LINE",
"128 896 LINE",
"0 896 LINE",
"0 0 LINE",
"128 0 LINE"
);
}
);
width = 640;
}
);
unicode = 006B;
},
{
glyphname = l;
lastChange = "2019-06-23 08:42:31 +0000";
layers = (
{
layerId = "C5C5FFEE-5FA5-41C1-9397-B55000630C69";
paths = (
{
closed = 1;
nodes = (
"384 128 LINE",
"256 128 LINE",
"256 896 LINE",
"0 896 LINE",
"0 768 LINE",
"128 768 LINE",
"128 128 LINE",
"0 128 LINE",
"0 0 LINE",
"384 0 LINE"
);
}
);
width = 512;
}
);
unicode = 006C;
},
{
glyphname = m;
lastChange = "2019-06-23 08:42:31 +0000";
layers = (
{
layerId = "C5C5FFEE-5FA5-41C1-9397-B55000630C69";
paths = (
{
closed = 1;
nodes = (
"384 512 LINE",
"256 512 LINE",
"256 256 LINE",
"384 256 LINE"
);
},
{
closed = 1;
nodes = (
"640 512 LINE",
"512 512 LINE",
"512 0 LINE",
"640 0 LINE"
);
},
{
closed = 1;
nodes = (
"128 512 LINE",
"256 512 LINE",
"256 640 LINE",
"0 640 LINE",
"0 0 LINE",
"128 0 LINE"
);
},
{
closed = 1;
nodes = (
"512 640 LINE",
"384 640 LINE",
"384 512 LINE",
"512 512 LINE"
);
}
);
width = 768;
}
);
unicode = 006D;
},
{
glyphname = n;
lastChange = "2019-06-23 08:42:31 +0000";
layers = (
{
layerId = "C5C5FFEE-5FA5-41C1-9397-B55000630C69";
paths = (
{
closed = 1;
nodes = (
"640 512 LINE",
"512 512 LINE",
"512 0 LINE",
"640 0 LINE"
);
},
{
closed = 1;
nodes = (
"128 384 LINE",
"256 384 LINE",
"256 512 LINE",
"128 512 LINE",
"128 640 LINE",
"0 640 LINE",
"0 0 LINE",
"128 0 LINE"
);
},
{
closed = 1;
nodes = (
"512 640 LINE",
"256 640 LINE",
"256 512 LINE",
"512 512 LINE"
);
}
);
width = 768;
}
);
unicode = 006E;
},
{
glyphname = o;
lastChange = "2019-06-23 09:01:04 +0000";
layers = (
{
anchors = (
{
name = bottom;
position = "{384, 0}";
},
{
name = center;
position = "{384, 320}";
},
{
name = ogonek;
position = "{691, 10}";
},
{
name = top;
position = "{128, 640}";
},
{
name = topright;
position = "{748, 640}";
}
);
layerId = "C5C5FFEE-5FA5-41C1-9397-B55000630C69";
paths = (
{
closed = 1;
nodes = (
"512 128 LINE",
"128 128 LINE",
"128 0 LINE",
"512 0 LINE"
);
},
{
closed = 1;
nodes = (
"128 512 LINE",
"0 512 LINE",
"0 128 LINE",
"128 128 LINE"
);
},
{
closed = 1;
nodes = (
"640 512 LINE",
"512 512 LINE",
"512 128 LINE",
"640 128 LINE"
);
},
{
closed = 1;
nodes = (
"512 640 LINE",
"128 640 LINE",
"128 512 LINE",
"512 512 LINE"
);
}
);
width = 768;
},
{
anchors = (
{
name = bottom;
position = "{384, 0}";
},
{
name = center;
position = "{384, 320}";
},
{
name = ogonek;
position = "{691, 10}";
},
{
name = top;
position = "{128, 640}";
},
{
name = topright;
position = "{748, 640}";
}
);
layerId = "C5C5FFEE-5FA5-41C1-9397-B55000630C69";
paths = (
{
closed = 1;
nodes = (
"512 128 LINE",
"128 128 LINE",
"128 0 LINE",
"512 0 LINE"
);
},
{
closed = 1;
nodes = (
"128 512 LINE",
"0 512 LINE",
"0 128 LINE",
"128 128 LINE"
);
},
{
closed = 1;
nodes = (
"640 512 LINE",
"512 512 LINE",
"512 128 LINE",
"640 128 LINE"
);
},
{
closed = 1;
nodes = (
"512 640 LINE",
"128 640 LINE",
"128 512 LINE",
"512 512 LINE"
);
}
);
width = 768;
}
);
unicode = 006F;
},
{
glyphname = p;
lastChange = "2019-06-23 08:42:31 +0000";
layers = (
{
layerId = "C5C5FFEE-5FA5-41C1-9397-B55000630C69";
paths = (
{
closed = 1;
nodes = (
"640 512 LINE",
"512 512 LINE",
"512 384 LINE",
"640 384 LINE"
);
},
{
closed = 1;
nodes = (
"128 256 LINE",
"512 256 LINE",
"512 384 LINE",
"128 384 LINE",
"128 512 LINE",
"512 512 LINE",
"512 640 LINE",
"0 640 LINE",
"0 0 LINE",
"128 0 LINE"
);
}
);
width = 768;
}
);
unicode = 0070;
},
{
glyphname = q;
lastChange = "2019-06-23 08:42:31 +0000";
layers = (
{
layerId = "C5C5FFEE-5FA5-41C1-9397-B55000630C69";
paths = (
{
closed = 1;
nodes = (
"128 512 LINE",
"0 512 LINE",
"0 384 LINE",
"128 384 LINE"
);
},
{
closed = 1;
nodes = (
"384 640 LINE",
"128 640 LINE",
"128 512 LINE",
"384 512 LINE"
);
},
{
closed = 1;
nodes = (
"640 640 LINE",
"512 640 LINE",
"512 512 LINE",
"384 512 LINE",
"384 384 LINE",
"128 384 LINE",
"128 256 LINE",
"512 256 LINE",
"512 0 LINE",
"640 0 LINE"
);
}
);
width = 768;
}
);
unicode = 0071;
},
{
glyphname = r;
lastChange = "2019-06-23 08:42:31 +0000";
layers = (
{
layerId = "C5C5FFEE-5FA5-41C1-9397-B55000630C69";
paths = (
{
closed = 1;
nodes = (
"640 512 LINE",
"512 512 LINE",
"512 384 LINE",
"640 384 LINE"
);
},
{
closed = 1;
nodes = (
"128 384 LINE",
"256 384 LINE",
"256 512 LINE",
"128 512 LINE",
"128 640 LINE",
"0 640 LINE",
"0 0 LINE",
"128 0 LINE"
);
},
{
closed = 1;
nodes = (
"512 640 LINE",
"256 640 LINE",
"256 512 LINE",
"512 512 LINE"
);
}
);
width = 768;
}
);
unicode = 0072;
},
{
glyphname = s;
lastChange = "2019-06-23 08:42:31 +0000";
layers = (
{
layerId = "C5C5FFEE-5FA5-41C1-9397-B55000630C69";
paths = (
{
closed = 1;
nodes = (
"512 128 LINE",
"0 128 LINE",
"0 0 LINE",
"512 0 LINE"
);
},
{
closed = 1;
nodes = (
"640 256 LINE",
"512 256 LINE",
"512 128 LINE",
"640 128 LINE"
);
},
{
closed = 1;
nodes = (
"512 384 LINE",
"128 384 LINE",
"128 256 LINE",
"512 256 LINE"
);
},
{
closed = 1;
nodes = (
"128 512 LINE",
"0 512 LINE",
"0 384 LINE",
"128 384 LINE"
);
},
{
closed = 1;
nodes = (
"512 640 LINE",
"128 640 LINE",
"128 512 LINE",
"512 512 LINE"
);
}
);
width = 768;
}
);
unicode = 0073;
},
{
glyphname = t;
lastChange = "2019-06-23 08:42:31 +0000";
layers = (
{
layerId = "C5C5FFEE-5FA5-41C1-9397-B55000630C69";
paths = (
{
closed = 1;
nodes = (
"512 128 LINE",
"256 128 LINE",
"256 0 LINE",
"512 0 LINE"
);
},
{
closed = 1;
nodes = (
"640 256 LINE",
"512 256 LINE",
"512 128 LINE",
"640 128 LINE"
);
},
{
closed = 1;
nodes = (
"256 512 LINE",
"384 512 LINE",
"384 640 LINE",
"256 640 LINE",
"256 896 LINE",
"128 896 LINE",
"128 640 LINE",
"0 640 LINE",
"0 512 LINE",
"128 512 LINE",
"128 128 LINE",
"256 128 LINE"
);
}
);
width = 768;
}
);
unicode = 0074;
},
{
glyphname = u;
lastChange = "2019-06-23 08:59:15 +0000";
layers = (
{
anchors = (
{
name = bottom;
position = "{384, 0}";
},
{
name = ogonek;
position = "{691, 10}";
},
{
name = top;
position = "{128, 640}";
},
{
name = topright;
position = "{748, 640}";
}
);
layerId = "C5C5FFEE-5FA5-41C1-9397-B55000630C69";
paths = (
{
closed = 1;
nodes = (
"512 128 LINE",
"128 128 LINE",
"128 0 LINE",
"512 0 LINE"
);
},
{
closed = 1;
nodes = (
"128 640 LINE",
"0 640 LINE",
"0 128 LINE",
"128 128 LINE"
);
},
{
closed = 1;
nodes = (
"640 640 LINE",
"512 640 LINE",
"512 128 LINE",
"640 128 LINE"
);
}
);
width = 768;
}
);
unicode = 0075;
},
{
glyphname = v;
lastChange = "2019-06-23 08:42:31 +0000";
layers = (
{
layerId = "C5C5FFEE-5FA5-41C1-9397-B55000630C69";
paths = (
{
closed = 1;
nodes = (
"384 128 LINE",
"256 128 LINE",
"256 0 LINE",
"384 0 LINE"
);
},
{
closed = 1;
nodes = (
"256 256 LINE",
"128 256 LINE",
"128 128 LINE",
"256 128 LINE"
);
},
{
closed = 1;
nodes = (
"512 256 LINE",
"384 256 LINE",
"384 128 LINE",
"512 128 LINE"
);
},
{
closed = 1;
nodes = (
"128 640 LINE",
"0 640 LINE",
"0 256 LINE",
"128 256 LINE"
);
},
{
closed = 1;
nodes = (
"640 640 LINE",
"512 640 LINE",
"512 256 LINE",
"640 256 LINE"
);
}
);
width = 768;
}
);
unicode = 0076;
},
{
glyphname = w;
lastChange = "2019-06-23 08:42:31 +0000";
layers = (
{
layerId = "C5C5FFEE-5FA5-41C1-9397-B55000630C69";
paths = (
{
closed = 1;
nodes = (
"256 128 LINE",
"128 128 LINE",
"128 0 LINE",
"256 0 LINE"
);
},
{
closed = 1;
nodes = (
"512 128 LINE",
"384 128 LINE",
"384 0 LINE",
"512 0 LINE"
);
},
{
closed = 1;
nodes = (
"384 384 LINE",
"256 384 LINE",
"256 128 LINE",
"384 128 LINE"
);
},
{
closed = 1;
nodes = (
"128 640 LINE",
"0 640 LINE",
"0 128 LINE",
"128 128 LINE"
);
},
{
closed = 1;
nodes = (
"640 640 LINE",
"512 640 LINE",
"512 128 LINE",
"640 128 LINE"
);
}
);
width = 768;
}
);
unicode = 0077;
},
{
glyphname = x;
lastChange = "2019-06-23 08:42:31 +0000";
layers = (
{
layerId = "C5C5FFEE-5FA5-41C1-9397-B55000630C69";
paths = (
{
closed = 1;
nodes = (
"128 128 LINE",
"0 128 LINE",
"0 0 LINE",
"128 0 LINE"
);
},
{
closed = 1;
nodes = (
"640 128 LINE",
"512 128 LINE",
"512 0 LINE",
"640 0 LINE"
);
},
{
closed = 1;
nodes = (
"256 256 LINE",
"128 256 LINE",
"128 128 LINE",
"256 128 LINE"
);
},
{
closed = 1;
nodes = (
"512 256 LINE",
"384 256 LINE",
"384 128 LINE",
"512 128 LINE"
);
},
{
closed = 1;
nodes = (
"384 384 LINE",
"256 384 LINE",
"256 256 LINE",
"384 256 LINE"
);
},
{
closed = 1;
nodes = (
"256 512 LINE",
"128 512 LINE",
"128 384 LINE",
"256 384 LINE"
);
},
{
closed = 1;
nodes = (
"512 512 LINE",
"384 512 LINE",
"384 384 LINE",
"512 384 LINE"
);
},
{
closed = 1;
nodes = (
"128 640 LINE",
"0 640 LINE",
"0 512 LINE",
"128 512 LINE"
);
},
{
closed = 1;
nodes = (
"640 640 LINE",
"512 640 LINE",
"512 512 LINE",
"640 512 LINE"
);
}
);
width = 768;
}
);
unicode = 0078;
},
{
glyphname = y;
lastChange = "2019-06-23 08:42:31 +0000";
layers = (
{
layerId = "C5C5FFEE-5FA5-41C1-9397-B55000630C69";
paths = (
{
closed = 1;
nodes = (
"512 128 LINE",
"128 128 LINE",
"128 0 LINE",
"512 0 LINE"
);
},
{
closed = 1;
nodes = (
"128 640 LINE",
"0 640 LINE",
"0 384 LINE",
"128 384 LINE"
);
},
{
closed = 1;
nodes = (
"640 640 LINE",
"512 640 LINE",
"512 384 LINE",
"128 384 LINE",
"128 256 LINE",
"512 256 LINE",
"512 128 LINE",
"640 128 LINE"
);
}
);
width = 768;
}
);
unicode = 0079;
},
{
glyphname = z;
lastChange = "2019-06-23 08:42:31 +0000";
layers = (
{
layerId = "C5C5FFEE-5FA5-41C1-9397-B55000630C69";
paths = (
{
closed = 1;
nodes = (
"640 128 LINE",
"256 128 LINE",
"256 256 LINE",
"128 256 LINE",
"128 128 LINE",
"0 128 LINE",
"0 0 LINE",
"640 0 LINE"
);
},
{
closed = 1;
nodes = (
"384 384 LINE",
"256 384 LINE",
"256 256 LINE",
"384 256 LINE"
);
},
{
closed = 1;
nodes = (
"512 512 LINE",
"640 512 LINE",
"640 640 LINE",
"0 640 LINE",
"0 512 LINE",
"384 512 LINE",
"384 384 LINE",
"512 384 LINE"
);
}
);
width = 768;
}
);
unicode = 007A;
},
{
glyphname = zero;
lastChange = "2019-06-23 08:42:31 +0000";
layers = (
{
layerId = "C5C5FFEE-5FA5-41C1-9397-B55000630C69";
paths = (
{
closed = 1;
nodes = (
"512 128 LINE",
"128 128 LINE",
"128 0 LINE",
"512 0 LINE"
);
},
{
closed = 1;
nodes = (
"384 512 LINE",
"256 512 LINE",
"256 384 LINE",
"384 384 LINE"
);
},
{
closed = 1;
nodes = (
"128 256 LINE",
"256 256 LINE",
"256 384 LINE",
"128 384 LINE",
"128 768 LINE",
"0 768 LINE",
"0 128 LINE",
"128 128 LINE"
);
},
{
closed = 1;
nodes = (
"640 768 LINE",
"512 768 LINE",
"512 640 LINE",
"384 640 LINE",
"384 512 LINE",
"512 512 LINE",
"512 128 LINE",
"640 128 LINE"
);
},
{
closed = 1;
nodes = (
"512 896 LINE",
"128 896 LINE",
"128 768 LINE",
"512 768 LINE"
);
}
);
width = 768;
}
);
unicode = 0030;
},
{
glyphname = one;
lastChange = "2019-06-23 08:42:31 +0000";
layers = (
{
layerId = "C5C5FFEE-5FA5-41C1-9397-B55000630C69";
paths = (
{
closed = 1;
nodes = (
"384 128 LINE",
"256 128 LINE",
"256 896 LINE",
"128 896 LINE",
"128 768 LINE",
"0 768 LINE",
"0 640 LINE",
"128 640 LINE",
"128 128 LINE",
"0 128 LINE",
"0 0 LINE",
"384 0 LINE"
);
}
);
width = 512;
}
);
unicode = 0031;
},
{
glyphname = two;
lastChange = "2019-06-23 08:42:31 +0000";
layers = (
{
layerId = "C5C5FFEE-5FA5-41C1-9397-B55000630C69";
paths = (
{
closed = 1;
nodes = (
"640 128 LINE",
"256 128 LINE",
"256 256 LINE",
"128 256 LINE",
"128 128 LINE",
"0 128 LINE",
"0 0 LINE",
"640 0 LINE"
);
},
{
closed = 1;
nodes = (
"384 384 LINE",
"256 384 LINE",
"256 256 LINE",
"384 256 LINE"
);
},
{
closed = 1;
nodes = (
"512 512 LINE",
"384 512 LINE",
"384 384 LINE",
"512 384 LINE"
);
},
{
closed = 1;
nodes = (
"128 768 LINE",
"0 768 LINE",
"0 640 LINE",
"128 640 LINE"
);
},
{
closed = 1;
nodes = (
"640 768 LINE",
"512 768 LINE",
"512 512 LINE",
"640 512 LINE"
);
},
{
closed = 1;
nodes = (
"512 896 LINE",
"128 896 LINE",
"128 768 LINE",
"512 768 LINE"
);
}
);
width = 768;
}
);
unicode = 0032;
},
{
glyphname = three;
lastChange = "2019-06-23 08:42:31 +0000";
layers = (
{
layerId = "C5C5FFEE-5FA5-41C1-9397-B55000630C69";
paths = (
{
closed = 1;
nodes = (
"512 128 LINE",
"128 128 LINE",
"128 0 LINE",
"512 0 LINE"
);
},
{
closed = 1;
nodes = (
"128 256 LINE",
"0 256 LINE",
"0 128 LINE",
"128 128 LINE"
);
},
{
closed = 1;
nodes = (
"640 384 LINE",
"512 384 LINE",
"512 128 LINE",
"640 128 LINE"
);
},
{
closed = 1;
nodes = (
"512 512 LINE",
"384 512 LINE",
"384 384 LINE",
"512 384 LINE"
);
},
{
closed = 1;
nodes = (
"384 640 LINE",
"256 640 LINE",
"256 512 LINE",
"384 512 LINE"
);
},
{
closed = 1;
nodes = (
"512 768 LINE",
"640 768 LINE",
"640 896 LINE",
"0 896 LINE",
"0 768 LINE",
"384 768 LINE",
"384 640 LINE",
"512 640 LINE"
);
}
);
width = 768;
}
);
unicode = 0033;
},
{
glyphname = four;
lastChange = "2019-06-23 08:42:31 +0000";
layers = (
{
layerId = "C5C5FFEE-5FA5-41C1-9397-B55000630C69";
paths = (
{
closed = 1;
nodes = (
"256 640 LINE",
"128 640 LINE",
"128 512 LINE",
"256 512 LINE"
);
},
{
closed = 1;
nodes = (
"512 256 LINE",
"640 256 LINE",
"640 384 LINE",
"512 384 LINE",
"512 896 LINE",
"384 896 LINE",
"384 768 LINE",
"256 768 LINE",
"256 640 LINE",
"384 640 LINE",
"384 384 LINE",
"128 384 LINE",
"128 512 LINE",
"0 512 LINE",
"0 256 LINE",
"384 256 LINE",
"384 0 LINE",
"512 0 LINE"
);
}
);
width = 768;
}
);
unicode = 0034;
},
{
glyphname = five;
lastChange = "2019-06-23 08:42:31 +0000";
layers = (
{
layerId = "C5C5FFEE-5FA5-41C1-9397-B55000630C69";
paths = (
{
closed = 1;
nodes = (
"512 128 LINE",
"128 128 LINE",
"128 0 LINE",
"512 0 LINE"
);
},
{
closed = 1;
nodes = (
"128 256 LINE",
"0 256 LINE",
"0 128 LINE",
"128 128 LINE"
);
},
{
closed = 1;
nodes = (
"640 512 LINE",
"512 512 LINE",
"512 128 LINE",
"640 128 LINE"
);
},
{
closed = 1;
nodes = (
"512 640 LINE",
"128 640 LINE",
"128 768 LINE",
"640 768 LINE",
"640 896 LINE",
"0 896 LINE",
"0 512 LINE",
"512 512 LINE"
);
}
);
width = 768;
}
);
unicode = 0035;
},
{
glyphname = six;
lastChange = "2019-06-23 08:42:31 +0000";
layers = (
{
layerId = "C5C5FFEE-5FA5-41C1-9397-B55000630C69";
paths = (
{
closed = 1;
nodes = (
"512 128 LINE",
"128 128 LINE",
"128 0 LINE",
"512 0 LINE"
);
},
{
closed = 1;
nodes = (
"640 384 LINE",
"512 384 LINE",
"512 128 LINE",
"640 128 LINE"
);
},
{
closed = 1;
nodes = (
"128 384 LINE",
"512 384 LINE",
"512 512 LINE",
"128 512 LINE",
"128 640 LINE",
"0 640 LINE",
"0 128 LINE",
"128 128 LINE"
);
},
{
closed = 1;
nodes = (
"256 768 LINE",
"128 768 LINE",
"128 640 LINE",
"256 640 LINE"
);
},
{
closed = 1;
nodes = (
"512 896 LINE",
"256 896 LINE",
"256 768 LINE",
"512 768 LINE"
);
}
);
width = 768;
}
);
unicode = 0036;
},
{
glyphname = seven;
lastChange = "2019-06-23 08:42:31 +0000";
layers = (
{
layerId = "C5C5FFEE-5FA5-41C1-9397-B55000630C69";
paths = (
{
closed = 1;
nodes = (
"256 384 LINE",
"128 384 LINE",
"128 0 LINE",
"256 0 LINE"
);
},
{
closed = 1;
nodes = (
"384 512 LINE",
"256 512 LINE",
"256 384 LINE",
"384 384 LINE"
);
},
{
closed = 1;
nodes = (
"512 640 LINE",
"384 640 LINE",
"384 512 LINE",
"512 512 LINE"
);
},
{
closed = 1;
nodes = (
"640 896 LINE",
"0 896 LINE",
"0 768 LINE",
"512 768 LINE",
"512 640 LINE",
"640 640 LINE"
);
}
);
width = 768;
}
);
unicode = 0037;
},
{
glyphname = eight;
lastChange = "2019-06-23 08:42:31 +0000";
layers = (
{
layerId = "C5C5FFEE-5FA5-41C1-9397-B55000630C69";
paths = (
{
closed = 1;
nodes = (
"512 128 LINE",
"128 128 LINE",
"128 0 LINE",
"512 0 LINE"
);
},
{
closed = 1;
nodes = (
"128 384 LINE",
"0 384 LINE",
"0 128 LINE",
"128 128 LINE"
);
},
{
closed = 1;
nodes = (
"640 384 LINE",
"512 384 LINE",
"512 128 LINE",
"640 128 LINE"
);
},
{
closed = 1;
nodes = (
"512 512 LINE",
"128 512 LINE",
"128 384 LINE",
"512 384 LINE"
);
},
{
closed = 1;
nodes = (
"128 768 LINE",
"0 768 LINE",
"0 512 LINE",
"128 512 LINE"
);
},
{
closed = 1;
nodes = (
"640 768 LINE",
"512 768 LINE",
"512 512 LINE",
"640 512 LINE"
);
},
{
closed = 1;
nodes = (
"512 896 LINE",
"128 896 LINE",
"128 768 LINE",
"512 768 LINE"
);
}
);
width = 768;
}
);
unicode = 0038;
},
{
glyphname = nine;
lastChange = "2019-06-23 08:42:31 +0000";
layers = (
{
layerId = "C5C5FFEE-5FA5-41C1-9397-B55000630C69";
paths = (
{
closed = 1;
nodes = (
"384 128 LINE",
"128 128 LINE",
"128 0 LINE",
"384 0 LINE"
);
},
{
closed = 1;
nodes = (
"512 256 LINE",
"384 256 LINE",
"384 128 LINE",
"512 128 LINE"
);
},
{
closed = 1;
nodes = (
"128 768 LINE",
"0 768 LINE",
"0 512 LINE",
"128 512 LINE"
);
},
{
closed = 1;
nodes = (
"640 768 LINE",
"512 768 LINE",
"512 512 LINE",
"128 512 LINE",
"128 384 LINE",
"512 384 LINE",
"512 256 LINE",
"640 256 LINE"
);
},
{
closed = 1;
nodes = (
"512 896 LINE",
"128 896 LINE",
"128 768 LINE",
"512 768 LINE"
);
}
);
width = 768;
}
);
unicode = 0039;
},
{
glyphname = period;
lastChange = "2019-06-23 08:42:31 +0000";
layers = (
{
layerId = "C5C5FFEE-5FA5-41C1-9397-B55000630C69";
paths = (
{
closed = 1;
nodes = (
"256 256 LINE",
"0 256 LINE",
"0 0 LINE",
"256 0 LINE"
);
}
);
width = 384;
}
);
unicode = 002E;
},
{
glyphname = comma;
lastChange = "2019-06-23 08:42:31 +0000";
layers = (
{
layerId = "C5C5FFEE-5FA5-41C1-9397-B55000630C69";
paths = (
{
closed = 1;
nodes = (
"256 256 LINE",
"0 256 LINE",
"0 128 LINE",
"128 128 LINE",
"128 0 LINE",
"256 0 LINE"
);
}
);
width = 384;
}
);
unicode = 002C;
},
{
glyphname = colon;
lastChange = "2019-06-23 08:42:31 +0000";
layers = (
{
layerId = "C5C5FFEE-5FA5-41C1-9397-B55000630C69";
paths = (
{
closed = 1;
nodes = (
"128 256 LINE",
"0 256 LINE",
"0 128 LINE",
"128 128 LINE"
);
},
{
closed = 1;
nodes = (
"128 768 LINE",
"0 768 LINE",
"0 640 LINE",
"128 640 LINE"
);
}
);
width = 256;
}
);
unicode = 003A;
},
{
glyphname = semicolon;
lastChange = "2019-06-23 08:42:31 +0000";
layers = (
{
layerId = "C5C5FFEE-5FA5-41C1-9397-B55000630C69";
paths = (
{
closed = 1;
nodes = (
"256 256 LINE",
"0 256 LINE",
"0 128 LINE",
"128 128 LINE",
"128 0 LINE",
"256 0 LINE"
);
},
{
closed = 1;
nodes = (
"256 768 LINE",
"128 768 LINE",
"128 640 LINE",
"256 640 LINE"
);
}
);
width = 384;
}
);
unicode = 003B;
},
{
glyphname = ellipsis;
lastChange = "2019-06-23 08:42:31 +0000";
layers = (
{
layerId = "C5C5FFEE-5FA5-41C1-9397-B55000630C69";
paths = (
{
closed = 1;
nodes = (
"128 128 LINE",
"0 128 LINE",
"0 0 LINE",
"128 0 LINE"
);
},
{
closed = 1;
nodes = (
"384 128 LINE",
"256 128 LINE",
"256 0 LINE",
"384 0 LINE"
);
},
{
closed = 1;
nodes = (
"640 128 LINE",
"512 128 LINE",
"512 0 LINE",
"640 0 LINE"
);
}
);
width = 768;
}
);
unicode = 2026;
},
{
glyphname = exclam;
lastChange = "2019-06-23 08:42:31 +0000";
layers = (
{
layerId = "C5C5FFEE-5FA5-41C1-9397-B55000630C69";
paths = (
{
closed = 1;
nodes = (
"128 128 LINE",
"0 128 LINE",
"0 0 LINE",
"128 0 LINE"
);
},
{
closed = 1;
nodes = (
"128 896 LINE",
"0 896 LINE",
"0 256 LINE",
"128 256 LINE"
);
}
);
width = 256;
}
);
unicode = 0021;
},
{
glyphname = question;
lastChange = "2019-06-23 08:42:31 +0000";
layers = (
{
layerId = "C5C5FFEE-5FA5-41C1-9397-B55000630C69";
paths = (
{
closed = 1;
nodes = (
"256 128 LINE",
"128 128 LINE",
"128 0 LINE",
"256 0 LINE"
);
},
{
closed = 1;
nodes = (
"256 384 LINE",
"128 384 LINE",
"128 256 LINE",
"256 256 LINE"
);
},
{
closed = 1;
nodes = (
"384 512 LINE",
"256 512 LINE",
"256 384 LINE",
"384 384 LINE"
);
},
{
closed = 1;
nodes = (
"128 768 LINE",
"0 768 LINE",
"0 640 LINE",
"128 640 LINE"
);
},
{
closed = 1;
nodes = (
"512 768 LINE",
"384 768 LINE",
"384 512 LINE",
"512 512 LINE"
);
},
{
closed = 1;
nodes = (
"384 896 LINE",
"128 896 LINE",
"128 768 LINE",
"384 768 LINE"
);
}
);
width = 640;
}
);
unicode = 003F;
},
{
glyphname = periodcentered;
lastChange = "2019-06-23 08:42:31 +0000";
layers = (
{
layerId = "C5C5FFEE-5FA5-41C1-9397-B55000630C69";
paths = (
{
closed = 1;
nodes = (
"128 512 LINE",
"0 512 LINE",
"0 384 LINE",
"128 384 LINE"
);
}
);
width = 256;
}
);
unicode = 00B7;
},
{
glyphname = asterisk;
lastChange = "2019-06-23 08:42:31 +0000";
layers = (
{
layerId = "C5C5FFEE-5FA5-41C1-9397-B55000630C69";
paths = (
{
closed = 1;
nodes = (
"256 640 LINE",
"384 640 LINE",
"384 768 LINE",
"256 768 LINE",
"256 896 LINE",
"128 896 LINE",
"128 768 LINE",
"0 768 LINE",
"0 640 LINE",
"128 640 LINE",
"128 512 LINE",
"256 512 LINE"
);
}
);
width = 512;
}
);
unicode = 002A;
},
{
glyphname = numbersign;
lastChange = "2019-06-23 08:42:31 +0000";
layers = (
{
layerId = "C5C5FFEE-5FA5-41C1-9397-B55000630C69";
paths = (
{
closed = 1;
nodes = (
"256 640 LINE",
"384 640 LINE",
"384 256 LINE",
"256 256 LINE"
);
},
{
closed = 1;
nodes = (
"256 128 LINE",
"384 128 LINE",
"384 0 LINE",
"512 0 LINE",
"512 128 LINE",
"640 128 LINE",
"640 256 LINE",
"512 256 LINE",
"512 640 LINE",
"640 640 LINE",
"640 768 LINE",
"512 768 LINE",
"512 896 LINE",
"384 896 LINE",
"384 768 LINE",
"256 768 LINE",
"256 896 LINE",
"128 896 LINE",
"128 768 LINE",
"0 768 LINE",
"0 640 LINE",
"128 640 LINE",
"128 256 LINE",
"0 256 LINE",
"0 128 LINE",
"128 128 LINE",
"128 0 LINE",
"256 0 LINE"
);
}
);
width = 768;
}
);
unicode = 0023;
},
{
glyphname = slash;
lastChange = "2019-06-23 08:42:31 +0000";
layers = (
{
layerId = "C5C5FFEE-5FA5-41C1-9397-B55000630C69";
paths = (
{
closed = 1;
nodes = (
"128 256 LINE",
"0 256 LINE",
"0 0 LINE",
"128 0 LINE"
);
},
{
closed = 1;
nodes = (
"256 640 LINE",
"128 640 LINE",
"128 256 LINE",
"256 256 LINE"
);
},
{
closed = 1;
nodes = (
"384 896 LINE",
"256 896 LINE",
"256 640 LINE",
"384 640 LINE"
);
}
);
width = 512;
}
);
unicode = 002F;
},
{
glyphname = backslash;
lastChange = "2019-06-23 08:42:31 +0000";
layers = (
{
layerId = "C5C5FFEE-5FA5-41C1-9397-B55000630C69";
paths = (
{
closed = 1;
nodes = (
"384 256 LINE",
"256 256 LINE",
"256 0 LINE",
"384 0 LINE"
);
},
{
closed = 1;
nodes = (
"256 640 LINE",
"128 640 LINE",
"128 256 LINE",
"256 256 LINE"
);
},
{
closed = 1;
nodes = (
"128 896 LINE",
"0 896 LINE",
"0 640 LINE",
"128 640 LINE"
);
}
);
width = 512;
}
);
unicode = 005C;
},
{
glyphname = parenleft;
lastChange = "2019-06-23 08:42:31 +0000";
layers = (
{
layerId = "C5C5FFEE-5FA5-41C1-9397-B55000630C69";
paths = (
{
closed = 1;
nodes = (
"384 128 LINE",
"256 128 LINE",
"256 0 LINE",
"384 0 LINE"
);
},
{
closed = 1;
nodes = (
"256 256 LINE",
"128 256 LINE",
"128 128 LINE",
"256 128 LINE"
);
},
{
closed = 1;
nodes = (
"128 640 LINE",
"0 640 LINE",
"0 256 LINE",
"128 256 LINE"
);
},
{
closed = 1;
nodes = (
"256 768 LINE",
"128 768 LINE",
"128 640 LINE",
"256 640 LINE"
);
},
{
closed = 1;
nodes = (
"384 896 LINE",
"256 896 LINE",
"256 768 LINE",
"384 768 LINE"
);
}
);
width = 512;
}
);
unicode = 0028;
},
{
glyphname = parenright;
lastChange = "2019-06-23 08:42:31 +0000";
layers = (
{
layerId = "C5C5FFEE-5FA5-41C1-9397-B55000630C69";
paths = (
{
closed = 1;
nodes = (
"128 128 LINE",
"0 128 LINE",
"0 0 LINE",
"128 0 LINE"
);
},
{
closed = 1;
nodes = (
"256 256 LINE",
"128 256 LINE",
"128 128 LINE",
"256 128 LINE"
);
},
{
closed = 1;
nodes = (
"384 640 LINE",
"256 640 LINE",
"256 256 LINE",
"384 256 LINE"
);
},
{
closed = 1;
nodes = (
"256 768 LINE",
"128 768 LINE",
"128 640 LINE",
"256 640 LINE"
);
},
{
closed = 1;
nodes = (
"128 896 LINE",
"0 896 LINE",
"0 768 LINE",
"128 768 LINE"
);
}
);
width = 512;
}
);
unicode = 0029;
},
{
glyphname = braceleft;
lastChange = "2019-06-23 08:42:31 +0000";
layers = (
{
layerId = "C5C5FFEE-5FA5-41C1-9397-B55000630C69";
paths = (
{
closed = 1;
nodes = (
"384 128 LINE",
"256 128 LINE",
"256 384 LINE",
"128 384 LINE",
"128 0 LINE",
"384 0 LINE"
);
},
{
closed = 1;
nodes = (
"128 512 LINE",
"0 512 LINE",
"0 384 LINE",
"128 384 LINE"
);
},
{
closed = 1;
nodes = (
"256 768 LINE",
"384 768 LINE",
"384 896 LINE",
"128 896 LINE",
"128 512 LINE",
"256 512 LINE"
);
}
);
width = 512;
}
);
unicode = 007B;
},
{
glyphname = braceright;
lastChange = "2019-06-23 08:42:31 +0000";
layers = (
{
layerId = "C5C5FFEE-5FA5-41C1-9397-B55000630C69";
paths = (
{
closed = 1;
nodes = (
"256 384 LINE",
"128 384 LINE",
"128 128 LINE",
"0 128 LINE",
"0 0 LINE",
"256 0 LINE"
);
},
{
closed = 1;
nodes = (
"384 512 LINE",
"256 512 LINE",
"256 384 LINE",
"384 384 LINE"
);
},
{
closed = 1;
nodes = (
"256 896 LINE",
"0 896 LINE",
"0 768 LINE",
"128 768 LINE",
"128 512 LINE",
"256 512 LINE"
);
}
);
width = 512;
}
);
unicode = 007D;
},
{
glyphname = bracketleft;
lastChange = "2019-06-23 08:42:31 +0000";
layers = (
{
layerId = "C5C5FFEE-5FA5-41C1-9397-B55000630C69";
paths = (
{
closed = 1;
nodes = (
"256 128 LINE",
"128 128 LINE",
"128 768 LINE",
"256 768 LINE",
"256 896 LINE",
"0 896 LINE",
"0 0 LINE",
"256 0 LINE"
);
}
);
width = 384;
}
);
unicode = 005B;
},
{
glyphname = bracketright;
lastChange = "2019-06-23 08:42:31 +0000";
layers = (
{
layerId = "C5C5FFEE-5FA5-41C1-9397-B55000630C69";
paths = (
{
closed = 1;
nodes = (
"256 896 LINE",
"0 896 LINE",
"0 768 LINE",
"128 768 LINE",
"128 128 LINE",
"0 128 LINE",
"0 0 LINE",
"256 0 LINE"
);
}
);
width = 384;
}
);
unicode = 005D;
},
{
glyphname = hyphen;
lastChange = "2019-06-23 08:42:31 +0000";
layers = (
{
layerId = "C5C5FFEE-5FA5-41C1-9397-B55000630C69";
paths = (
{
closed = 1;
nodes = (
"640 512 LINE",
"0 512 LINE",
"0 384 LINE",
"640 384 LINE"
);
}
);
width = 768;
}
);
unicode = 002D;
},
{
glyphname = softhyphen;
lastChange = "2019-06-23 08:42:31 +0000";
layers = (
{
layerId = "C5C5FFEE-5FA5-41C1-9397-B55000630C69";
paths = (
{
closed = 1;
nodes = (
"384 512 LINE",
"0 512 LINE",
"0 384 LINE",
"384 384 LINE"
);
}
);
width = 512;
}
);
note = uni00AD;
unicode = 00AD;
},
{
glyphname = emdash;
lastChange = "2019-06-23 08:42:31 +0000";
layers = (
{
layerId = "C5C5FFEE-5FA5-41C1-9397-B55000630C69";
paths = (
{
closed = 1;
nodes = (
"640 512 LINE",
"0 512 LINE",
"0 384 LINE",
"640 384 LINE"
);
}
);
width = 768;
}
);
unicode = 2014;
},
{
glyphname = underscore;
lastChange = "2019-06-23 08:42:31 +0000";
layers = (
{
layerId = "C5C5FFEE-5FA5-41C1-9397-B55000630C69";
paths = (
{
closed = 1;
nodes = (
"512 128 LINE",
"0 128 LINE",
"0 0 LINE",
"512 0 LINE"
);
}
);
width = 640;
}
);
unicode = 005F;
},
{
glyphname = quotedblleft;
lastChange = "2019-06-23 08:42:31 +0000";
layers = (
{
layerId = "C5C5FFEE-5FA5-41C1-9397-B55000630C69";
paths = (
{
closed = 1;
nodes = (
"128 896 LINE",
"0 896 LINE",
"0 640 LINE",
"128 640 LINE"
);
},
{
closed = 1;
nodes = (
"384 896 LINE",
"256 896 LINE",
"256 640 LINE",
"384 640 LINE"
);
}
);
width = 512;
}
);
unicode = 201C;
},
{
glyphname = quotedblright;
lastChange = "2019-06-23 08:42:31 +0000";
layers = (
{
layerId = "C5C5FFEE-5FA5-41C1-9397-B55000630C69";
paths = (
{
closed = 1;
nodes = (
"128 896 LINE",
"0 896 LINE",
"0 640 LINE",
"128 640 LINE"
);
},
{
closed = 1;
nodes = (
"384 896 LINE",
"256 896 LINE",
"256 640 LINE",
"384 640 LINE"
);
}
);
width = 512;
}
);
unicode = 201D;
},
{
glyphname = quoteleft;
lastChange = "2019-06-23 08:42:31 +0000";
layers = (
{
layerId = "C5C5FFEE-5FA5-41C1-9397-B55000630C69";
paths = (
{
closed = 1;
nodes = (
"128 896 LINE",
"0 896 LINE",
"0 640 LINE",
"128 640 LINE"
);
}
);
width = 256;
}
);
unicode = 2018;
},
{
glyphname = quoteright;
lastChange = "2019-06-23 08:42:31 +0000";
layers = (
{
layerId = "C5C5FFEE-5FA5-41C1-9397-B55000630C69";
paths = (
{
closed = 1;
nodes = (
"128 896 LINE",
"0 896 LINE",
"0 640 LINE",
"128 640 LINE"
);
}
);
width = 256;
}
);
unicode = 2019;
},
{
glyphname = guillemetleft;
lastChange = "2019-06-23 08:42:31 +0000";
layers = (
{
layerId = "C5C5FFEE-5FA5-41C1-9397-B55000630C69";
paths = (
{
closed = 1;
nodes = (
"256 128 LINE",
"128 128 LINE",
"128 0 LINE",
"256 0 LINE"
);
},
{
closed = 1;
nodes = (
"640 128 LINE",
"512 128 LINE",
"512 0 LINE",
"640 0 LINE"
);
},
{
closed = 1;
nodes = (
"128 256 LINE",
"0 256 LINE",
"0 128 LINE",
"128 128 LINE"
);
},
{
closed = 1;
nodes = (
"512 256 LINE",
"384 256 LINE",
"384 128 LINE",
"512 128 LINE"
);
},
{
closed = 1;
nodes = (
"256 384 LINE",
"128 384 LINE",
"128 256 LINE",
"256 256 LINE"
);
},
{
closed = 1;
nodes = (
"640 384 LINE",
"512 384 LINE",
"512 256 LINE",
"640 256 LINE"
);
}
);
width = 768;
}
);
note = guillemotleft;
unicode = 00AB;
},
{
glyphname = guillemetright;
lastChange = "2019-06-23 08:42:31 +0000";
layers = (
{
layerId = "C5C5FFEE-5FA5-41C1-9397-B55000630C69";
paths = (
{
closed = 1;
nodes = (
"128 128 LINE",
"0 128 LINE",
"0 0 LINE",
"128 0 LINE"
);
},
{
closed = 1;
nodes = (
"512 128 LINE",
"384 128 LINE",
"384 0 LINE",
"512 0 LINE"
);
},
{
closed = 1;
nodes = (
"256 256 LINE",
"128 256 LINE",
"128 128 LINE",
"256 128 LINE"
);
},
{
closed = 1;
nodes = (
"640 256 LINE",
"512 256 LINE",
"512 128 LINE",
"640 128 LINE"
);
},
{
closed = 1;
nodes = (
"128 384 LINE",
"0 384 LINE",
"0 256 LINE",
"128 256 LINE"
);
},
{
closed = 1;
nodes = (
"512 384 LINE",
"384 384 LINE",
"384 256 LINE",
"512 256 LINE"
);
}
);
width = 768;
}
);
note = guillemotright;
unicode = 00BB;
},
{
glyphname = guilsinglleft;
lastChange = "2019-06-23 08:42:31 +0000";
layers = (
{
layerId = "C5C5FFEE-5FA5-41C1-9397-B55000630C69";
paths = (
{
closed = 1;
nodes = (
"384 128 LINE",
"256 128 LINE",
"256 0 LINE",
"384 0 LINE"
);
},
{
closed = 1;
nodes = (
"256 256 LINE",
"128 256 LINE",
"128 128 LINE",
"256 128 LINE"
);
},
{
closed = 1;
nodes = (
"128 384 LINE",
"0 384 LINE",
"0 256 LINE",
"128 256 LINE"
);
},
{
closed = 1;
nodes = (
"256 512 LINE",
"128 512 LINE",
"128 384 LINE",
"256 384 LINE"
);
},
{
closed = 1;
nodes = (
"384 640 LINE",
"256 640 LINE",
"256 512 LINE",
"384 512 LINE"
);
}
);
width = 512;
}
);
unicode = 2039;
},
{
glyphname = guilsinglright;
lastChange = "2019-06-23 08:42:31 +0000";
layers = (
{
layerId = "C5C5FFEE-5FA5-41C1-9397-B55000630C69";
paths = (
{
closed = 1;
nodes = (
"128 128 LINE",
"0 128 LINE",
"0 0 LINE",
"128 0 LINE"
);
},
{
closed = 1;
nodes = (
"256 256 LINE",
"128 256 LINE",
"128 128 LINE",
"256 128 LINE"
);
},
{
closed = 1;
nodes = (
"384 384 LINE",
"256 384 LINE",
"256 256 LINE",
"384 256 LINE"
);
},
{
closed = 1;
nodes = (
"256 512 LINE",
"128 512 LINE",
"128 384 LINE",
"256 384 LINE"
);
},
{
closed = 1;
nodes = (
"128 640 LINE",
"0 640 LINE",
"0 512 LINE",
"128 512 LINE"
);
}
);
width = 512;
}
);
unicode = 203A;
},
{
glyphname = quotedbl;
lastChange = "2019-06-23 08:42:31 +0000";
layers = (
{
layerId = "C5C5FFEE-5FA5-41C1-9397-B55000630C69";
paths = (
{
closed = 1;
nodes = (
"128 896 LINE",
"0 896 LINE",
"0 640 LINE",
"128 640 LINE"
);
},
{
closed = 1;
nodes = (
"384 896 LINE",
"256 896 LINE",
"256 640 LINE",
"384 640 LINE"
);
}
);
width = 512;
}
);
unicode = 0022;
},
{
glyphname = quotesingle;
lastChange = "2019-06-23 08:42:31 +0000";
layers = (
{
layerId = "C5C5FFEE-5FA5-41C1-9397-B55000630C69";
paths = (
{
closed = 1;
nodes = (
"128 896 LINE",
"0 896 LINE",
"0 640 LINE",
"128 640 LINE"
);
}
);
width = 256;
}
);
unicode = 0027;
},
{
glyphname = nbspace;
lastChange = "2019-06-23 08:42:31 +0000";
layers = (
{
layerId = "C5C5FFEE-5FA5-41C1-9397-B55000630C69";
paths = (
{
closed = 1;
nodes = (
"640 128 LINE",
"0 128 LINE",
"0 0 LINE",
"640 0 LINE"
);
}
);
width = 640;
}
);
note = uni00A0;
unicode = 00A0;
},
{
glyphname = .notdef;
lastChange = "2019-06-23 08:42:31 +0000";
layers = (
{
layerId = "C5C5FFEE-5FA5-41C1-9397-B55000630C69";
paths = (
{
closed = 1;
nodes = (
"1024 1024 LINE",
"0 1024 LINE",
"0 0 LINE",
"1024 0 LINE"
);
}
);
width = 1024;
}
);
},
{
glyphname = dollar;
lastChange = "2019-06-23 08:42:31 +0000";
layers = (
{
layerId = "C5C5FFEE-5FA5-41C1-9397-B55000630C69";
paths = (
{
closed = 1;
nodes = (
"128 256 LINE",
"0 256 LINE",
"0 128 LINE",
"128 128 LINE"
);
},
{
closed = 1;
nodes = (
"640 384 LINE",
"512 384 LINE",
"512 128 LINE",
"640 128 LINE"
);
},
{
closed = 1;
nodes = (
"128 768 LINE",
"0 768 LINE",
"0 512 LINE",
"128 512 LINE"
);
},
{
closed = 1;
nodes = (
"640 768 LINE",
"512 768 LINE",
"512 640 LINE",
"640 640 LINE"
);
},
{
closed = 1;
nodes = (
"512 128 LINE",
"384 128 LINE",
"384 384 LINE",
"512 384 LINE",
"512 512 LINE",
"384 512 LINE",
"384 768 LINE",
"512 768 LINE",
"512 896 LINE",
"128 896 LINE",
"128 768 LINE",
"256 768 LINE",
"256 512 LINE",
"128 512 LINE",
"128 384 LINE",
"256 384 LINE",
"256 128 LINE",
"128 128 LINE",
"128 0 LINE",
"512 0 LINE"
);
}
);
width = 768;
}
);
unicode = 0024;
},
{
glyphname = plus;
lastChange = "2019-06-23 08:42:31 +0000";
layers = (
{
layerId = "C5C5FFEE-5FA5-41C1-9397-B55000630C69";
paths = (
{
closed = 1;
nodes = (
"384 384 LINE",
"640 384 LINE",
"640 512 LINE",
"384 512 LINE",
"384 768 LINE",
"256 768 LINE",
"256 512 LINE",
"0 512 LINE",
"0 384 LINE",
"256 384 LINE",
"256 128 LINE",
"384 128 LINE"
);
}
);
width = 768;
}
);
unicode = 002B;
},
{
glyphname = multiply;
lastChange = "2019-06-23 08:42:31 +0000";
layers = (
{
layerId = "C5C5FFEE-5FA5-41C1-9397-B55000630C69";
paths = (
{
closed = 1;
nodes = (
"128 128 LINE",
"0 128 LINE",
"0 0 LINE",
"128 0 LINE"
);
},
{
closed = 1;
nodes = (
"640 128 LINE",
"512 128 LINE",
"512 0 LINE",
"640 0 LINE"
);
},
{
closed = 1;
nodes = (
"256 256 LINE",
"128 256 LINE",
"128 128 LINE",
"256 128 LINE"
);
},
{
closed = 1;
nodes = (
"512 256 LINE",
"384 256 LINE",
"384 128 LINE",
"512 128 LINE"
);
},
{
closed = 1;
nodes = (
"384 384 LINE",
"256 384 LINE",
"256 256 LINE",
"384 256 LINE"
);
},
{
closed = 1;
nodes = (
"256 512 LINE",
"128 512 LINE",
"128 384 LINE",
"256 384 LINE"
);
},
{
closed = 1;
nodes = (
"512 512 LINE",
"384 512 LINE",
"384 384 LINE",
"512 384 LINE"
);
},
{
closed = 1;
nodes = (
"128 640 LINE",
"0 640 LINE",
"0 512 LINE",
"128 512 LINE"
);
},
{
closed = 1;
nodes = (
"640 640 LINE",
"512 640 LINE",
"512 512 LINE",
"640 512 LINE"
);
}
);
width = 768;
}
);
unicode = 00D7;
},
{
glyphname = divide;
lastChange = "2019-06-23 08:42:31 +0000";
layers = (
{
layerId = "C5C5FFEE-5FA5-41C1-9397-B55000630C69";
paths = (
{
closed = 1;
nodes = (
"384 128 LINE",
"256 128 LINE",
"256 0 LINE",
"384 0 LINE"
);
},
{
closed = 1;
nodes = (
"640 384 LINE",
"0 384 LINE",
"0 256 LINE",
"640 256 LINE"
);
},
{
closed = 1;
nodes = (
"384 640 LINE",
"256 640 LINE",
"256 512 LINE",
"384 512 LINE"
);
}
);
width = 768;
}
);
unicode = 00F7;
},
{
glyphname = equal;
lastChange = "2019-06-23 08:42:31 +0000";
layers = (
{
layerId = "C5C5FFEE-5FA5-41C1-9397-B55000630C69";
paths = (
{
closed = 1;
nodes = (
"640 384 LINE",
"0 384 LINE",
"0 256 LINE",
"640 256 LINE"
);
},
{
closed = 1;
nodes = (
"640 640 LINE",
"0 640 LINE",
"0 512 LINE",
"640 512 LINE"
);
}
);
width = 768;
}
);
unicode = 003D;
},
{
glyphname = greater;
lastChange = "2019-06-23 08:42:31 +0000";
layers = (
{
layerId = "C5C5FFEE-5FA5-41C1-9397-B55000630C69";
paths = (
{
closed = 1;
nodes = (
"128 128 LINE",
"0 128 LINE",
"0 0 LINE",
"128 0 LINE"
);
},
{
closed = 1;
nodes = (
"256 256 LINE",
"128 256 LINE",
"128 128 LINE",
"256 128 LINE"
);
},
{
closed = 1;
nodes = (
"384 384 LINE",
"256 384 LINE",
"256 256 LINE",
"384 256 LINE"
);
},
{
closed = 1;
nodes = (
"512 512 LINE",
"384 512 LINE",
"384 384 LINE",
"512 384 LINE"
);
},
{
closed = 1;
nodes = (
"384 640 LINE",
"256 640 LINE",
"256 512 LINE",
"384 512 LINE"
);
},
{
closed = 1;
nodes = (
"256 768 LINE",
"128 768 LINE",
"128 640 LINE",
"256 640 LINE"
);
},
{
closed = 1;
nodes = (
"128 896 LINE",
"0 896 LINE",
"0 768 LINE",
"128 768 LINE"
);
}
);
width = 640;
}
);
unicode = 003E;
},
{
glyphname = less;
lastChange = "2019-06-23 08:42:31 +0000";
layers = (
{
layerId = "C5C5FFEE-5FA5-41C1-9397-B55000630C69";
paths = (
{
closed = 1;
nodes = (
"512 128 LINE",
"384 128 LINE",
"384 0 LINE",
"512 0 LINE"
);
},
{
closed = 1;
nodes = (
"384 256 LINE",
"256 256 LINE",
"256 128 LINE",
"384 128 LINE"
);
},
{
closed = 1;
nodes = (
"256 384 LINE",
"128 384 LINE",
"128 256 LINE",
"256 256 LINE"
);
},
{
closed = 1;
nodes = (
"128 512 LINE",
"0 512 LINE",
"0 384 LINE",
"128 384 LINE"
);
},
{
closed = 1;
nodes = (
"256 640 LINE",
"128 640 LINE",
"128 512 LINE",
"256 512 LINE"
);
},
{
closed = 1;
nodes = (
"384 768 LINE",
"256 768 LINE",
"256 640 LINE",
"384 640 LINE"
);
},
{
closed = 1;
nodes = (
"512 896 LINE",
"384 896 LINE",
"384 768 LINE",
"512 768 LINE"
);
}
);
width = 640;
}
);
unicode = 003C;
},
{
glyphname = plusminus;
lastChange = "2019-06-23 08:42:31 +0000";
layers = (
{
layerId = "C5C5FFEE-5FA5-41C1-9397-B55000630C69";
paths = (
{
closed = 1;
nodes = (
"640 128 LINE",
"0 128 LINE",
"0 0 LINE",
"640 0 LINE"
);
},
{
closed = 1;
nodes = (
"384 512 LINE",
"640 512 LINE",
"640 640 LINE",
"384 640 LINE",
"384 896 LINE",
"256 896 LINE",
"256 640 LINE",
"0 640 LINE",
"0 512 LINE",
"256 512 LINE",
"256 256 LINE",
"384 256 LINE"
);
}
);
width = 768;
}
);
unicode = 00B1;
},
{
glyphname = asciitilde;
lastChange = "2019-06-23 08:42:31 +0000";
layers = (
{
layerId = "C5C5FFEE-5FA5-41C1-9397-B55000630C69";
paths = (
{
closed = 1;
nodes = (
"512 384 LINE",
"384 384 LINE",
"384 256 LINE",
"512 256 LINE"
);
},
{
closed = 1;
nodes = (
"128 512 LINE",
"0 512 LINE",
"0 384 LINE",
"128 384 LINE"
);
},
{
closed = 1;
nodes = (
"384 512 LINE",
"256 512 LINE",
"256 384 LINE",
"384 384 LINE"
);
},
{
closed = 1;
nodes = (
"640 512 LINE",
"512 512 LINE",
"512 384 LINE",
"640 384 LINE"
);
},
{
closed = 1;
nodes = (
"256 640 LINE",
"128 640 LINE",
"128 512 LINE",
"256 512 LINE"
);
}
);
width = 768;
}
);
unicode = 007E;
},
{
glyphname = percent;
lastChange = "2019-06-23 08:42:31 +0000";
layers = (
{
layerId = "C5C5FFEE-5FA5-41C1-9397-B55000630C69";
paths = (
{
closed = 1;
nodes = (
"128 128 LINE",
"0 128 LINE",
"0 0 LINE",
"128 0 LINE"
);
},
{
closed = 1;
nodes = (
"640 256 LINE",
"384 256 LINE",
"384 0 LINE",
"640 0 LINE"
);
},
{
closed = 1;
nodes = (
"256 384 LINE",
"128 384 LINE",
"128 128 LINE",
"256 128 LINE"
);
},
{
closed = 1;
nodes = (
"384 512 LINE",
"256 512 LINE",
"256 384 LINE",
"384 384 LINE"
);
},
{
closed = 1;
nodes = (
"512 768 LINE",
"384 768 LINE",
"384 512 LINE",
"512 512 LINE"
);
},
{
closed = 1;
nodes = (
"256 896 LINE",
"0 896 LINE",
"0 640 LINE",
"256 640 LINE"
);
},
{
closed = 1;
nodes = (
"640 896 LINE",
"512 896 LINE",
"512 768 LINE",
"640 768 LINE"
);
}
);
width = 768;
}
);
unicode = 0025;
},
{
glyphname = at;
lastChange = "2019-06-23 08:42:31 +0000";
layers = (
{
layerId = "C5C5FFEE-5FA5-41C1-9397-B55000630C69";
paths = (
{
closed = 1;
nodes = (
"768 128 LINE",
"128 128 LINE",
"128 0 LINE",
"768 0 LINE"
);
},
{
closed = 1;
nodes = (
"384 512 LINE",
"512 512 LINE",
"512 384 LINE",
"384 384 LINE"
);
},
{
closed = 1;
nodes = (
"128 768 LINE",
"0 768 LINE",
"0 128 LINE",
"128 128 LINE"
);
},
{
closed = 1;
nodes = (
"896 768 LINE",
"768 768 LINE",
"768 384 LINE",
"640 384 LINE",
"640 640 LINE",
"256 640 LINE",
"256 256 LINE",
"896 256 LINE"
);
},
{
closed = 1;
nodes = (
"768 896 LINE",
"128 896 LINE",
"128 768 LINE",
"768 768 LINE"
);
}
);
width = 1024;
}
);
unicode = 0040;
},
{
glyphname = ampersand;
lastChange = "2019-06-23 08:42:31 +0000";
layers = (
{
layerId = "C5C5FFEE-5FA5-41C1-9397-B55000630C69";
paths = (
{
closed = 1;
nodes = (
"512 128 LINE",
"128 128 LINE",
"128 0 LINE",
"512 0 LINE"
);
},
{
closed = 1;
nodes = (
"768 128 LINE",
"640 128 LINE",
"640 0 LINE",
"768 0 LINE"
);
},
{
closed = 1;
nodes = (
"640 256 LINE",
"512 256 LINE",
"512 128 LINE",
"640 128 LINE"
);
},
{
closed = 1;
nodes = (
"128 384 LINE",
"0 384 LINE",
"0 128 LINE",
"128 128 LINE"
);
},
{
closed = 1;
nodes = (
"512 384 LINE",
"256 384 LINE",
"256 256 LINE",
"512 256 LINE"
);
},
{
closed = 1;
nodes = (
"768 384 LINE",
"640 384 LINE",
"640 256 LINE",
"768 256 LINE"
);
},
{
closed = 1;
nodes = (
"256 512 LINE",
"128 512 LINE",
"128 384 LINE",
"256 384 LINE"
);
},
{
closed = 1;
nodes = (
"128 768 LINE",
"256 768 LINE",
"256 512 LINE",
"384 512 LINE",
"384 896 LINE",
"0 896 LINE",
"0 512 LINE",
"128 512 LINE"
);
}
);
width = 896;
}
);
unicode = 0026;
},
{
glyphname = copyright;
lastChange = "2019-06-23 08:42:31 +0000";
layers = (
{
layerId = "C5C5FFEE-5FA5-41C1-9397-B55000630C69";
paths = (
{
closed = 1;
nodes = (
"640 128 LINE",
"128 128 LINE",
"128 0 LINE",
"640 0 LINE"
);
},
{
closed = 1;
nodes = (
"512 384 LINE",
"384 384 LINE",
"384 512 LINE",
"512 512 LINE",
"512 640 LINE",
"256 640 LINE",
"256 256 LINE",
"512 256 LINE"
);
},
{
closed = 1;
nodes = (
"128 768 LINE",
"0 768 LINE",
"0 128 LINE",
"128 128 LINE"
);
},
{
closed = 1;
nodes = (
"768 768 LINE",
"640 768 LINE",
"640 128 LINE",
"768 128 LINE"
);
},
{
closed = 1;
nodes = (
"640 896 LINE",
"128 896 LINE",
"128 768 LINE",
"640 768 LINE"
);
}
);
width = 896;
}
);
unicode = 00A9;
},
{
glyphname = degree;
lastChange = "2019-06-23 08:42:31 +0000";
layers = (
{
layerId = "C5C5FFEE-5FA5-41C1-9397-B55000630C69";
paths = (
{
closed = 1;
nodes = (
"384 512 LINE",
"128 512 LINE",
"128 384 LINE",
"384 384 LINE"
);
},
{
closed = 1;
nodes = (
"128 768 LINE",
"0 768 LINE",
"0 512 LINE",
"128 512 LINE"
);
},
{
closed = 1;
nodes = (
"512 768 LINE",
"384 768 LINE",
"384 512 LINE",
"512 512 LINE"
);
},
{
closed = 1;
nodes = (
"384 896 LINE",
"128 896 LINE",
"128 768 LINE",
"384 768 LINE"
);
}
);
width = 640;
}
);
unicode = 00B0;
},
{
glyphname = bar;
lastChange = "2019-06-23 08:42:31 +0000";
layers = (
{
layerId = "C5C5FFEE-5FA5-41C1-9397-B55000630C69";
paths = (
{
closed = 1;
nodes = (
"128 896 LINE",
"0 896 LINE",
"0 0 LINE",
"128 0 LINE"
);
}
);
width = 256;
}
);
unicode = 007C;
},
{
glyphname = brokenbar;
lastChange = "2019-06-23 08:42:31 +0000";
layers = (
{
layerId = "C5C5FFEE-5FA5-41C1-9397-B55000630C69";
paths = (
{
closed = 1;
nodes = (
"128 384 LINE",
"0 384 LINE",
"0 0 LINE",
"128 0 LINE"
);
},
{
closed = 1;
nodes = (
"128 896 LINE",
"0 896 LINE",
"0 512 LINE",
"128 512 LINE"
);
}
);
width = 256;
}
);
unicode = 00A6;
},
{
glyphname = dagger;
lastChange = "2019-06-23 08:42:31 +0000";
layers = (
{
layerId = "C5C5FFEE-5FA5-41C1-9397-B55000630C69";
paths = (
{
closed = 1;
nodes = (
"384 512 LINE",
"640 512 LINE",
"640 640 LINE",
"384 640 LINE",
"384 896 LINE",
"256 896 LINE",
"256 640 LINE",
"0 640 LINE",
"0 512 LINE",
"256 512 LINE",
"256 0 LINE",
"384 0 LINE"
);
}
);
width = 640;
}
);
unicode = 2020;
},
{
glyphname = asciicircum;
lastChange = "2019-06-23 08:42:31 +0000";
layers = (
{
layerId = "C5C5FFEE-5FA5-41C1-9397-B55000630C69";
paths = (
{
closed = 1;
nodes = (
"128 640 LINE",
"0 640 LINE",
"0 512 LINE",
"128 512 LINE"
);
},
{
closed = 1;
nodes = (
"640 640 LINE",
"512 640 LINE",
"512 512 LINE",
"640 512 LINE"
);
},
{
closed = 1;
nodes = (
"256 768 LINE",
"128 768 LINE",
"128 640 LINE",
"256 640 LINE"
);
},
{
closed = 1;
nodes = (
"512 768 LINE",
"384 768 LINE",
"384 640 LINE",
"512 640 LINE"
);
},
{
closed = 1;
nodes = (
"384 896 LINE",
"256 896 LINE",
"256 768 LINE",
"384 768 LINE"
);
}
);
width = 768;
}
);
unicode = 005E;
},
{
glyphname = dieresiscomb;
lastChange = "2019-06-23 08:58:14 +0000";
layers = (
{
anchors = (
{
name = _top;
position = "{128, 640}";
},
{
name = top;
position = "{128, 896}";
}
);
layerId = "C5C5FFEE-5FA5-41C1-9397-B55000630C69";
paths = (
{
closed = 1;
nodes = (
"256 896 LINE",
"128 896 LINE",
"128 768 LINE",
"256 768 LINE"
);
},
{
closed = 1;
nodes = (
"512 896 LINE",
"384 896 LINE",
"384 768 LINE",
"512 768 LINE"
);
}
);
width = 600;
}
);
unicode = 0308;
},
{
glyphname = grave;
lastChange = "2019-06-23 08:42:31 +0000";
layers = (
{
layerId = "C5C5FFEE-5FA5-41C1-9397-B55000630C69";
paths = (
{
closed = 1;
nodes = (
"256 768 LINE",
"128 768 LINE",
"128 640 LINE",
"256 640 LINE"
);
},
{
closed = 1;
nodes = (
"128 896 LINE",
"0 896 LINE",
"0 768 LINE",
"128 768 LINE"
);
}
);
width = 384;
}
);
unicode = 0060;
},
{
glyphname = macron;
lastChange = "2019-06-23 08:42:31 +0000";
layers = (
{
layerId = "C5C5FFEE-5FA5-41C1-9397-B55000630C69";
paths = (
{
closed = 1;
nodes = (
"640 896 LINE",
"0 896 LINE",
"0 768 LINE",
"640 768 LINE"
);
}
);
width = 768;
}
);
unicode = 00AF;
},
{
glyphname = pixel;
lastChange = "2019-06-23 08:52:34 +0000";
layers = (
{
layerId = "C5C5FFEE-5FA5-41C1-9397-B55000630C69";
paths = (
{
closed = 1;
nodes = (
"128 128 LINE",
"0 128 LINE",
"0 0 LINE",
"128 0 LINE"
);
}
